<?xml version="1.0" standalone="no"?>
<!DOCTYPE svg PUBLIC "-//W3C//DTD SVG 20010904//EN"
 "http://www.w3.org/TR/2001/REC-SVG-20010904/DTD/svg10.dtd">
<svg version="1.0" xmlns="http://www.w3.org/2000/svg"
 width="1280.000000pt" height="1280.000000pt" viewBox="0 0 1280.000000 1280.000000"
 preserveAspectRatio="xMidYMid meet">
<metadata>
Created by potrace 1.11, written by Peter Selinger 2001-2013
</metadata>
<g transform="translate(0.000000,1280.000000) scale(0.100000,-0.100000)"
fill="#000000" stroke="none">
<path d="M0 6400 l0 -6400 6400 0 6400 0 0 6400 0 6400 -6400 0 -6400 0 0
-6400z m9296 2944 c15 -11 37 -33 48 -48 l21 -27 3 -2822 c2 -1552 0 -2847 -4
-2877 -5 -45 -12 -61 -44 -92 l-38 -38 -2881 0 -2881 0 -36 33 c-21 19 -38 46
-42 67 -4 19 -6 1319 -4 2889 l4 2853 32 35 c21 24 45 38 72 43 21 4 1318 7
2881 6 l2842 -1 27 -21z"/>
<path d="M3710 6400 l0 -2690 2690 0 2690 0 0 2690 0 2690 -2690 0 -2690 0 0
-2690z m4855 2240 c54 -51 55 -55 55 -387 0 -339 -2 -353 -63 -397 l-28 -21
-2129 0 -2129 0 -28 21 c-61 44 -63 58 -63 397 0 329 1 338 52 383 12 12 30
24 38 27 8 3 972 5 2142 4 l2126 -2 27 -25z m-4155 -1345 c114 -110 -23 -297
-157 -215 -89 54 -94 174 -10 230 47 31 127 24 167 -15z m4145 15 c86 -53 82
-176 -8 -230 -31 -20 -66 -20 -1915 -20 -1710 0 -1887 1 -1918 16 -92 44 -99
181 -11 234 31 20 65 20 1926 20 1881 0 1894 0 1926 -20z m-4168 -900 c45 -27
65 -62 65 -114 3 -146 -189 -187 -258 -54 -26 51 -12 109 38 154 12 12 30 24
38 27 32 12 87 6 117 -13z m4178 -10 c72 -67 72 -143 0 -210 l-27 -25 -1894
-3 c-1635 -2 -1899 0 -1929 12 -93 39 -101 182 -12 236 32 20 61 20 1934 18
l1901 -3 27 -25z m-4186 -888 c50 -25 73 -61 73 -115 2 -123 -141 -182 -229
-95 -62 63 -51 154 26 205 41 27 84 29 130 5z m4172 -5 c78 -51 88 -142 25
-206 l-36 -36 -1901 -3 c-2100 -2 -1938 -7 -1979 61 -40 65 -15 157 53 191 29
14 210 16 1918 16 l1886 0 34 -23z m-4177 -891 c127 -53 95 -240 -43 -254
-152 -14 -207 181 -70 250 41 22 69 22 113 4z m4165 -4 c97 -49 105 -177 16
-232 -32 -20 -45 -20 -1924 -20 -2090 0 -1930 -5 -1971 63 -42 68 -17 152 55
187 40 20 61 20 1915 20 1765 0 1877 -1 1909 -18z"/>
<path d="M4450 8250 l0 -150 1950 0 1950 0 0 150 0 150 -1950 0 -1950 0 0
-150z"/>
</g>
</svg>
